<svg width="17" height="17" viewBox="0 0 17 17" fill="none" xmlns="http://www.w3.org/2000/svg">
<path fill-rule="evenodd" clip-rule="evenodd" d="M5.08219 6.74202C5.34993 6.47423 5.78412 6.47423 6.05191 6.74202L8.30982 8.99998L15.1391 2.17057C15.4068 1.90278 15.841 1.90278 16.1088 2.17057C16.3766 2.43836 16.3766 2.87252 16.1088 3.14031L8.7947 10.4546C8.52691 10.7224 8.09276 10.7224 7.82498 10.4546L5.08219 7.71176C4.8144 7.44397 4.8144 7.00981 5.08219 6.74202Z" fill="#7A39FF"/>
<path fill-rule="evenodd" clip-rule="evenodd" d="M8.30938 1.51303C4.64861 1.51303 1.68097 4.48076 1.68097 8.14162C1.68097 11.8025 4.64861 14.7702 8.30938 14.7702C11.9701 14.7702 14.9378 11.8025 14.9378 8.14162C14.9378 7.76289 15.2448 7.45591 15.6235 7.45591C16.0022 7.45591 16.3092 7.76289 16.3092 8.14162C16.3092 12.5599 12.7276 16.1416 8.30938 16.1416C3.8912 16.1416 0.30957 12.5599 0.30957 8.14162C0.30957 3.72334 3.8912 0.141602 8.30938 0.141602C9.2554 0.141602 10.1645 0.306108 11.0086 0.608647C11.3652 0.736412 11.5506 1.12899 11.4228 1.48551C11.2951 1.842 10.9025 2.02742 10.546 1.89966C9.84815 1.64956 9.09548 1.51303 8.30938 1.51303Z" fill="#7A39FF"/>
</svg>
