<svg width="22" height="23" viewBox="0 0 22 23" fill="none" xmlns="http://www.w3.org/2000/svg">
<path d="M21.5864 11.6436C21.5864 5.69544 16.7645 0.873535 10.8164 0.873535C4.86829 0.873535 0.0463867 5.69544 0.0463867 11.6436C0.0463867 17.5917 4.86829 22.4136 10.8164 22.4136C16.7645 22.4136 21.5864 17.5917 21.5864 11.6436Z" fill="url(#paint0_linear_1958_98)"/>
<path d="M7.10059 9.12378C7.10059 8.65309 7.2517 8.1762 7.55394 7.69309C7.85617 7.20998 8.29715 6.80986 8.87688 6.49274C9.45667 6.17581 10.133 6.01726 10.9059 6.01709C11.6242 6.01709 12.2584 6.14964 12.8085 6.41474C13.3586 6.67984 13.7835 7.04031 14.0832 7.49616C14.378 7.93568 14.5346 8.45333 14.5329 8.98255C14.5329 9.4037 14.4473 9.77284 14.2762 10.09C14.1158 10.393 13.9104 10.6699 13.6668 10.9112C13.4315 11.1416 13.0091 11.5294 12.3997 12.0743C12.2573 12.2018 12.1221 12.337 11.9946 12.4794C11.9066 12.5766 11.8305 12.6839 11.768 12.7991C11.72 12.8916 11.6814 12.9888 11.6528 13.089C11.6255 13.1856 11.5846 13.3553 11.5301 13.598C11.436 14.1134 11.1412 14.371 10.6458 14.371C10.526 14.374 10.4069 14.3533 10.2952 14.3099C10.1836 14.2665 10.0817 14.2014 9.99541 14.1183C9.81947 13.95 9.73153 13.6998 9.73158 13.3677C9.73158 12.9515 9.79598 12.5911 9.92477 12.2865C10.0476 11.9909 10.2212 11.7192 10.4376 11.4834C10.7109 11.1952 10.9986 10.9211 11.2997 10.6621C11.6168 10.3847 11.846 10.1754 11.9873 10.0341C12.1275 9.89414 12.2476 9.7353 12.3439 9.56215C12.4403 9.38959 12.4903 9.19496 12.4888 8.99731C12.4918 8.8081 12.4538 8.62048 12.3774 8.44731C12.3011 8.27414 12.1883 8.1195 12.0467 7.99398C11.7518 7.72159 11.3715 7.58533 10.9059 7.58522C10.3608 7.58522 9.95947 7.72265 9.70188 7.99751C9.4443 8.27237 9.22626 8.67741 9.04777 9.21263C8.87929 9.77287 8.55973 10.053 8.08907 10.053C7.95802 10.0556 7.82786 10.0309 7.70692 9.9803C7.58598 9.92975 7.47692 9.85452 7.38671 9.75942C7.19596 9.56362 7.10059 9.35174 7.10059 9.12378ZM10.7275 17.2694C10.4363 17.2735 10.1541 17.1688 9.936 16.9758C9.71045 16.7802 9.59772 16.5064 9.5978 16.1546C9.59465 16.0078 9.62209 15.8619 9.67839 15.7263C9.73468 15.5906 9.81859 15.4682 9.92477 15.3668C10.0302 15.2623 10.1557 15.1801 10.2936 15.1252C10.4315 15.0702 10.5791 15.0437 10.7275 15.047C10.8735 15.0449 11.0185 15.0721 11.1538 15.127C11.2891 15.182 11.412 15.2635 11.5153 15.3667C11.6185 15.47 11.7 15.5929 11.7549 15.7283C11.8098 15.8636 11.8369 16.0086 11.8348 16.1546C11.8348 16.5015 11.7233 16.774 11.5003 16.9721C11.2897 17.1655 11.0135 17.2718 10.7275 17.2694Z" fill="white"/>
<defs>
<linearGradient id="paint0_linear_1958_98" x1="3.26759" y1="3.96184" x2="18.3652" y2="19.3253" gradientUnits="userSpaceOnUse">
<stop stop-color="#283075"/>
<stop offset="1" stop-color="#3C84AA"/>
</linearGradient>
</defs>
</svg>
