<svg width="210" height="238" viewBox="0 0 210 238" fill="none" xmlns="http://www.w3.org/2000/svg">
<path d="M209.612 55.2963C181.237 49.2119 171.433 25.9012 168.167 15.5732C158.955 49.7278 128.995 55.2963 128.995 55.2963C155.302 61.2564 164.791 86.4571 168.234 96.6086C174.672 69.6539 199.372 58.6949 209.612 55.2963Z" fill="url(#paint0_linear_79_6)"/>
<path d="M209.612 15.3476C199.23 13.1216 195.644 4.59306 194.449 0.814453C191.078 13.3103 180.117 15.3476 180.117 15.3476C189.742 17.5282 193.214 26.7481 194.473 30.4622C196.829 20.6005 205.865 16.591 209.612 15.3476Z" fill="url(#paint1_linear_79_6)"/>
<path d="M182.179 105.837C192.628 102.108 204.336 107.568 205.976 118.541C208.22 133.552 207.143 148.958 202.716 163.647C196.345 184.788 183.372 203.333 165.697 216.566C148.021 229.799 126.573 237.024 104.494 237.183C82.4143 237.342 60.8642 230.426 43.0004 217.449C25.1366 204.471 11.8979 186.115 5.22364 165.067C-1.45061 144.02 -1.20961 121.389 5.91132 100.489C13.0322 79.5887 26.6588 61.5181 44.795 48.9242C57.3963 40.1737 71.7144 34.3868 86.6836 31.8806C97.6264 30.0485 106.438 39.4946 106.122 50.5852C105.806 61.6758 96.3483 70.1025 85.7149 73.2695C79.3328 75.1704 73.2511 78.08 67.7121 81.9264C56.6258 89.6248 48.2962 100.671 43.9433 113.447C39.5904 126.223 39.4431 140.057 43.5229 152.922C47.6028 165.788 55.6953 177.009 66.6151 184.942C77.5349 192.875 90.708 197.102 104.205 197.005C117.701 196.908 130.812 192.491 141.617 184.402C152.421 176.313 160.352 164.977 164.246 152.054C166.192 145.597 167.079 138.914 166.914 132.257C166.639 121.165 171.729 109.566 182.179 105.837Z" fill="url(#paint2_linear_79_6)"/>
<defs>
<linearGradient id="paint0_linear_79_6" x1="196.444" y1="8.20377" x2="162.043" y2="99.4121" gradientUnits="userSpaceOnUse">
<stop stop-color="#0F6FFF"/>
<stop offset="1" stop-color="#A026FF"/>
</linearGradient>
<linearGradient id="paint1_linear_79_6" x1="204.794" y1="-1.88173" x2="192.208" y2="31.4879" gradientUnits="userSpaceOnUse">
<stop stop-color="#0F6FFF"/>
<stop offset="1" stop-color="#A026FF"/>
</linearGradient>
<linearGradient id="paint2_linear_79_6" x1="173.347" y1="11.6624" x2="85.9302" y2="244.637" gradientUnits="userSpaceOnUse">
<stop stop-color="#0F6FFF"/>
<stop offset="1" stop-color="#A026FF"/>
</linearGradient>
</defs>
</svg>
