<?xml version="1.0" encoding="UTF-8" standalone="no"?>
<!-- Created with Inkscape (http://www.inkscape.org/) -->

<svg
   version="1.1"
   id="svg477"
   xml:space="preserve"
   width="682.66669"
   height="682.66669"
   viewBox="0 0 682.66669 682.66669"
   xmlns="http://www.w3.org/2000/svg"
   xmlns:svg="http://www.w3.org/2000/svg"><defs
     id="defs481"><clipPath
       clipPathUnits="userSpaceOnUse"
       id="clipPath491"><path
         d="M 0,512 H 512 V 0 H 0 Z"
         id="path489" /></clipPath></defs><g
     id="g483"
     transform="matrix(1.3333333,0,0,-1.3333333,0,682.66667)"><g
       id="g485"><g
         id="g487"
         clip-path="url(#clipPath491)"><g
           id="g493"
           transform="translate(379.2549,264.9409)"><path
             d="m 0,0 c 12.549,12.548 12.549,32.896 0,45.445 -12.548,12.548 -32.896,12.548 -45.444,0 C -59.317,31.563 -77.007,13.882 -90.889,0 c -12.548,-12.548 -12.548,-32.896 0,-45.444 12.557,-12.549 32.897,-12.549 45.445,0 C -31.562,-31.563 -13.873,-13.881 0,0 Z"
             style="fill:none;stroke:#000000;stroke-width:30;stroke-linecap:round;stroke-linejoin:round;stroke-miterlimit:10;stroke-dasharray:none;stroke-opacity:1"
             id="path495" /></g><g
           id="g497"
           transform="translate(413.3408,208.1372)"><path
             d="m 0,0 c 12.548,12.548 12.548,32.896 0,45.445 -12.548,12.548 -32.896,12.548 -45.444,0 C -56.129,34.76 -68.846,22.043 -79.53,11.359 c -12.548,-12.548 -12.548,-32.888 0,-45.444 12.548,-12.548 32.896,-12.548 45.444,0 C -23.401,-23.393 -10.685,-10.684 0,0 Z"
             style="fill:none;stroke:#000000;stroke-width:30;stroke-linecap:round;stroke-linejoin:round;stroke-miterlimit:10;stroke-dasharray:none;stroke-opacity:1"
             id="path499" /></g><g
           id="g501"
           transform="translate(447.418,151.3335)"><path
             d="m 0,0 c 6.033,6.025 9.415,14.203 9.415,22.718 0,8.524 -3.382,16.702 -9.415,22.727 -6.024,6.025 -14.194,9.407 -22.718,9.407 -8.523,0 -16.693,-3.382 -22.719,-9.407 C -52.755,38.134 -60.853,30.037 -68.163,22.718 -74.188,16.693 -77.569,8.523 -77.569,0 c 0,-8.523 3.381,-16.693 9.406,-22.718 6.025,-6.033 14.203,-9.415 22.726,-9.415 8.516,0 16.694,3.382 22.719,9.415 C -15.407,-15.408 -7.31,-7.31 0,0 Z"
             style="fill:none;stroke:#000000;stroke-width:30;stroke-linecap:round;stroke-linejoin:round;stroke-miterlimit:10;stroke-dasharray:none;stroke-opacity:1"
             id="path503" /></g><g
           id="g505"
           transform="translate(333.8105,310.3857)"><path
             d="m 0,0 c 0,0 49.405,49.397 79.53,79.522 6.026,6.033 9.408,14.203 9.408,22.726 0,8.523 -3.382,16.693 -9.408,22.718 -6.025,6.026 -14.203,9.415 -22.726,9.415 -8.523,0 -16.694,-3.389 -22.718,-9.415 L -136.325,-45.445 c 0,0 -7.174,31.065 -14.935,64.709 -3.855,16.717 -16.484,30.028 -32.984,34.76 -16.492,4.732 -34.254,0.137 -46.385,-12.002 -0.008,0 -0.008,-0.008 -0.008,-0.008 l 0.193,-192.8 -48.2,-48.2 96.4,-96.4 h 139.563 c 12.782,0 25.04,5.085 34.077,14.123 34.865,34.856 122.211,122.211 122.211,122.211"
             style="fill:none;stroke:#000000;stroke-width:30;stroke-linecap:round;stroke-linejoin:round;stroke-miterlimit:10;stroke-dasharray:none;stroke-opacity:1"
             id="path507" /></g><g
           id="g509"
           transform="translate(197.4854,264.9409)"><path
             d="m 0,0 c 0,0 4.579,-4.579 11.359,-11.359 31.37,-31.37 31.37,-82.237 0,-113.607"
             style="fill:none;stroke:#000000;stroke-width:30;stroke-linecap:round;stroke-linejoin:round;stroke-miterlimit:10;stroke-dasharray:none;stroke-opacity:1"
             id="path511" /></g><g
           id="g513"
           transform="translate(199.7666,432.7334)"><path
             d="M 0,0 V 64.267"
             style="fill:none;stroke:#000000;stroke-width:30;stroke-linecap:round;stroke-linejoin:round;stroke-miterlimit:10;stroke-dasharray:none;stroke-opacity:1"
             id="path515" /></g><g
           id="g517"
           transform="translate(135.5,432.7334)"><path
             d="M 0,0 -16.066,16.066"
             style="fill:none;stroke:#000000;stroke-width:30;stroke-linecap:round;stroke-linejoin:round;stroke-miterlimit:10;stroke-dasharray:none;stroke-opacity:1"
             id="path519" /></g><g
           id="g521"
           transform="translate(264.0332,432.7334)"><path
             d="M 0,0 16.066,16.066"
             style="fill:none;stroke:#000000;stroke-width:30;stroke-linecap:round;stroke-linejoin:round;stroke-miterlimit:10;stroke-dasharray:none;stroke-opacity:1"
             id="path523" /></g></g></g></g></svg>
