<svg width="27" height="28" viewBox="0 0 27 28" fill="none" xmlns="http://www.w3.org/2000/svg">
<path d="M25.8235 11.7809L14.8902 11.7804C14.4074 11.7804 14.0161 12.1717 14.0161 12.6545V16.1472C14.0161 16.6299 14.4074 17.0212 14.8902 17.0212H21.0472C20.373 18.7709 19.1146 20.2362 17.5092 21.1672L20.1345 25.7119C24.3458 23.2763 26.8356 19.0028 26.8356 14.219C26.8356 13.5378 26.7854 13.0509 26.685 12.5026C26.6087 12.086 26.247 11.7809 25.8235 11.7809Z" fill="#167EE6"/>
<path d="M13.4337 22.2691C10.4206 22.2691 7.79024 20.6228 6.37751 18.1867L1.83301 20.8061C4.14568 24.8143 8.47805 27.5135 13.4337 27.5135C15.8648 27.5135 18.1588 26.8589 20.1348 25.7182V25.712L17.5095 21.1672C16.3087 21.8637 14.919 22.2691 13.4337 22.2691Z" fill="#12B347"/>
<path d="M20.1347 25.7181V25.7119L17.5094 21.1672C16.3085 21.8636 14.919 22.269 13.4336 22.269V27.5134C15.8647 27.5134 18.1587 26.8588 20.1347 25.7181Z" fill="#0F993E"/>
<path d="M5.2756 14.1112C5.2756 12.626 5.68092 11.2366 6.37726 10.0358L1.83275 7.41635C0.68576 9.38622 0.03125 11.6739 0.03125 14.1112C0.03125 16.5486 0.68576 18.8363 1.83275 20.8061L6.37726 18.1867C5.68092 16.9859 5.2756 15.5964 5.2756 14.1112Z" fill="#FFD500"/>
<path d="M13.4337 5.95334C15.3986 5.95334 17.2034 6.65151 18.6131 7.81284C18.9608 8.09932 19.4663 8.07864 19.7849 7.76007L22.2596 5.28537C22.621 4.92393 22.5953 4.3323 22.2092 3.99735C19.8473 1.94832 16.7742 0.708984 13.4337 0.708984C8.47805 0.708984 4.14568 3.40812 1.83301 7.41633L6.37751 10.0357C7.79024 7.59961 10.4206 5.95334 13.4337 5.95334Z" fill="#FF4B26"/>
<path d="M18.6129 7.81284C18.9607 8.09932 19.4662 8.07864 19.7847 7.76007L22.2594 5.28537C22.6208 4.92393 22.5951 4.3323 22.209 3.99735C19.8471 1.94827 16.774 0.708984 13.4336 0.708984V5.95334C15.3984 5.95334 17.2032 6.65151 18.6129 7.81284Z" fill="#D93F21"/>
</svg>
