<svg width="20" height="20" viewBox="0 0 20 20" fill="none" xmlns="http://www.w3.org/2000/svg">
<path d="M9.63135 19.6313C14.9506 19.6313 19.2627 15.3192 19.2627 10C19.2627 4.68075 14.9506 0.368652 9.63135 0.368652C4.3121 0.368652 0 4.68075 0 10C0 15.3192 4.3121 19.6313 9.63135 19.6313Z" fill="#0F884E"/>
<path fill-rule="evenodd" clip-rule="evenodd" d="M6.62369 14.6975L3.10119 10.9274C2.61894 10.4112 2.64662 9.59463 3.16277 9.11238C3.67892 8.63013 4.49554 8.65788 4.97779 9.17396L7.69489 12.082L11.9957 8.06362C12.0344 8.02745 12.0748 7.99431 12.1166 7.96382L14.1391 6.07418C14.6552 5.59193 15.4719 5.61969 15.9541 6.13584C16.4364 6.65191 16.4086 7.4686 15.8925 7.95085L9.71528 13.7225L9.70868 13.7154L7.57188 15.7119L6.62369 14.6975Z" fill="#F7F7F7"/>
</svg>
